# xmcd
#
# Track frame offsets:
#	150
#	33224
#	46899
#	57497
#	71610
#	93856
#	108052
#	125821
#	140336
#	153840
#	165524
#	200138
#	211532
#	233951
#	255836
#	268050
#	289873
#	305611
#
# Disc length: 4277 seconds
#
# Revision: 1
# Processed by: cddbd v1.5.2PL0 Copyright (c) Steve Scherf et al.
# Submitted via: EasyCDDAExtractor 2010.4.0.0
#
DISCID=f810b312
DTITLE=Various Artist - The Ultimate Blues Album-Disk 2
DYEAR=2003
DGENRE=Blues
TTITLE0=Albert King - I'll Play The Blues For You (Parts 1&2)
TTITLE1=Clarence "Gatemouth" Brown - It's Alright
TTITLE2=Albert Collins - The Freeze
TTITLE3=Lowell Fulson - Tramp
TTITLE4=Lightnin' Hopkins - Mr. Charlie (Parts 1&2)
TTITLE5=Johnny Winter - Ease My Pain
TTITLE6=John Mayall and The BluesBreakers - Telephone Blues
TTITLE7=Sonny Terry and Brownie McGhee - Walk On
TTITLE8=Mississippi Fred McDowell - You Got To Move
TTITLE9=Taj Mahal - Cakewalk Into Town
TTITLE10=Dr. John - I Walk On Guilded Splinters
TTITLE11=Ann Peebles - (I Feel Like) Breaking Up Somebody's Home
TTITLE12=J. Geils Band - Serves You Right To Suffer
TTITLE13=George Thorogood and The Destroyers - Bad To The Bone
TTITLE14=The Fabulous Thunderbirds - Wrap It Up
TTITLE15=Canned Heat - Bad Trouble
TTITLE16=Johnnie Taylor - Cheaper To Keep Her
TTITLE17=Freddie King - Going Down
EXTD=YEAR: 2003
EXTT0=
EXTT1=
EXTT2=
EXTT3=
EXTT4=
EXTT5=
EXTT6=
EXTT7=
EXTT8=
EXTT9=
EXTT10=
EXTT11=
EXTT12=
EXTT13=
EXTT14=
EXTT15=
EXTT16=
EXTT17=
PLAYORDER=
